<?xml version="1.0" standalone="no"?><!DOCTYPE svg PUBLIC "-//W3C//DTD SVG 1.1//EN" "http://www.w3.org/Graphics/SVG/1.1/DTD/svg11.dtd"><svg t="1583068190227" class="icon" viewBox="0 0 1024 1024" version="1.1" xmlns="http://www.w3.org/2000/svg" p-id="10174" xmlns:xlink="http://www.w3.org/1999/xlink" width="200" height="200"><defs><style type="text/css"></style></defs><path d="M510.4 89.6C277 89.6 87.8 278.8 87.8 512.2S277 934.8 510.4 934.8 933 745.6 933 512.2 743.8 89.6 510.4 89.6z m-29.5 191.7c0-16.3 13.2-29.6 29.6-29.6 16.3 0 29.6 13.2 29.6 29.6v330.8c0 16.3-13.2 29.6-29.6 29.6-16.3 0-29.6-13.2-29.6-29.6V281.3z m29.5 491.4c-16.3 0-29.6-13.2-29.6-29.6s13.2-29.6 29.6-29.6 29.6 13.2 29.6 29.6-13.2 29.6-29.6 29.6z" fill="#d4237a" p-id="10175"></path></svg>