<?xml version="1.0" standalone="no"?><!DOCTYPE svg PUBLIC "-//W3C//DTD SVG 1.1//EN" "http://www.w3.org/Graphics/SVG/1.1/DTD/svg11.dtd"><svg t="1585386783607" class="icon" viewBox="0 0 1024 1024" version="1.1" xmlns="http://www.w3.org/2000/svg" p-id="11561" xmlns:xlink="http://www.w3.org/1999/xlink" width="300" height="300"><defs><style type="text/css"></style></defs><path d="M631.82525 193.068806C628.920671 193.068806 625.982514 192.301276 623.296199 190.689462 615.312803 185.905188 612.676856 175.441187 617.386304 167.330946L671.952089 73.52165C676.678324 65.419938 686.961878 62.725054 694.953667 67.517855 702.93706 72.30213 705.573007 82.76613 700.863559 90.87637L646.297774 184.685666C643.166537 190.06691 637.567249 193.068806 631.82525 193.068806L631.82525 193.068806ZM413.594847 193.068806C408.045925 193.068806 402.606139 190.271584 399.416137 185.163241L340.652985 91.353945C335.674906 83.414267 337.975064 72.864985 345.798957 67.807811 353.631247 62.759166 363.998745 65.09587 368.985218 73.044076L427.748374 166.853372C432.718057 174.793049 430.417898 185.342332 422.594005 190.399506 419.790162 192.198938 416.675716 193.068806 413.594847 193.068806L413.594847 193.068806ZM501.722788 180.272367 501.722788 48.086538C501.722788 38.662968 509.244472 31.030303 518.512261 31.030303 527.788445 31.030303 535.301731 38.662968 535.301731 48.086538L535.301731 180.272367C535.301731 189.687407 527.788445 197.328601 518.512261 197.328601 509.244472 197.328601 501.722788 189.687407 501.722788 180.272367L501.722788 180.272367ZM734.398014 432.634722 834.39611 276.962459 931.674314 432.634722 734.398014 432.634722 734.398014 432.634722ZM716.198226 466.747193 927.66163 466.747193 563.304895 914.098145 716.198226 466.747193 716.198226 466.747193ZM322.921622 466.747193 472.188428 914.79745 108.075137 466.747193 322.921622 466.747193 322.921622 466.747193ZM304.738624 432.634722 105.430796 432.634722 207.821393 275.853804 304.738624 432.634722 304.738624 432.634722ZM337.419332 421.343496 237.421233 259.590683 468.620663 260.315573 337.419332 421.343496 337.419332 421.343496ZM680.646516 466.747193 517.46124 944.287682 358.372593 466.747193 680.646516 466.747193 680.646516 466.747193ZM564.614473 260.622586 804.309377 261.381589 702.128649 420.448042 564.614473 260.622586 564.614473 260.622586ZM519.88732 260.477607 668.012438 432.634722 371.804172 432.634722 512.105398 260.460551 519.88732 260.477607 519.88732 260.477607ZM843.1854 227.38851 200.492789 225.358819 52.510379 451.967966 517.394081 1024 983.41947 451.797405 843.1854 227.38851 843.1854 227.38851Z" p-id="11562" fill="#7dc5eb"></path></svg>