<?xml version="1.0" standalone="no"?><!DOCTYPE svg PUBLIC "-//W3C//DTD SVG 1.1//EN" "http://www.w3.org/Graphics/SVG/1.1/DTD/svg11.dtd"><svg t="1586285527224" class="icon" viewBox="0 0 1109 1024" version="1.1" xmlns="http://www.w3.org/2000/svg" p-id="4081" xmlns:xlink="http://www.w3.org/1999/xlink" width="541.50390625" height="500"><defs><style type="text/css"></style></defs><path d="M304.85376 0h473.258667a42.666667 42.666667 0 0 1 32.128 14.549333l262.272 299.776a42.666667 42.666667 0 0 1 1.066666 54.912l-496.810666 613.973334a42.666667 42.666667 0 0 1-66.261334 0.085333L9.600427 369.28a42.666667 42.666667 0 0 1 0.938666-55.04L272.72576 14.506667A42.666667 42.666667 0 0 1 304.85376 0z m389.333333 384l-98.986666 369.493333a42.666667 42.666667 0 0 0 82.432 22.058667L782.507093 384h185.6a42.666667 42.666667 0 1 0 0-85.333333h-170.666666V85.333333a42.666667 42.666667 0 1 0-85.333334 0v213.333334h-341.333333V85.333333a42.666667 42.666667 0 1 0-85.333333 0v213.333334h-170.666667a42.666667 42.666667 0 1 0 0 85.333333h176.213333l104.874667 391.552a42.666667 42.666667 0 0 0 82.432-22.101333L379.34976 384h314.88z" fill="#f6b453" p-id="4082"></path></svg>