<?xml version="1.0" standalone="no"?><!DOCTYPE svg PUBLIC "-//W3C//DTD SVG 1.1//EN" "http://www.w3.org/Graphics/SVG/1.1/DTD/svg11.dtd"><svg t="1583344883237" class="icon" viewBox="0 0 1024 1024" version="1.1" xmlns="http://www.w3.org/2000/svg" p-id="12094" width="100" height="100" xmlns:xlink="http://www.w3.org/1999/xlink"><defs><style type="text/css"></style></defs><path d="M346.298182 673.047273l21.410909 13.032727c16.756364-27.927273 29.789091-57.716364 36.305455-94.021818l-25.134545-3.723636C374.225455 620.916364 362.123636 648.843636 346.298182 673.047273zM660.945455 565.061818c7.447273-7.447273 11.170909-17.687273 11.170909-27.927273l0-7.447273-25.134545 0 0 7.447273c0 3.723636-1.861818 7.447273-4.654545 10.24-3.723636 2.792727-7.447273 3.723636-10.24 3.723636L522.24 551.098182l0-19.549091 94.952727 0c22.341818 0 40.029091-17.687273 40.029091-40.029091l0-43.752727c0-22.341818-17.687273-40.029091-40.029091-40.029091L522.24 407.738182 522.24 390.981818l147.083636 0 0-25.134545L522.24 365.847273l0-16.756364-25.134545 0 0 16.756364L349.090909 365.847273 349.090909 390.981818l147.083636 0 0 16.756364L402.152727 407.738182c-22.341818 0-40.029091 18.618182-40.029091 40.029091l0 43.752727c0 22.341818 18.618182 40.029091 40.029091 40.029091l94.952727 0 0 19.549091L347.229091 551.098182l0 25.134545 284.858182 0C643.258182 576.232727 652.567273 572.509091 660.945455 565.061818zM522.24 432.872727l94.952727 0c8.378182 0 14.894545 6.516364 14.894545 14.894545L632.087273 456.145455 522.24 456.145455 522.24 432.872727zM522.24 481.28l109.847273 0 0 10.24c0 7.447273-6.516364 14.894545-14.894545 14.894545L522.24 506.414545 522.24 481.28zM496.174545 506.414545 402.152727 506.414545c-8.378182 0-14.894545-6.516364-14.894545-14.894545l0-10.24 109.847273 0L497.105455 506.414545zM496.174545 456.145455 387.258182 456.145455l0-8.378182c0-8.378182 6.516364-14.894545 14.894545-14.894545l94.952727 0L497.105455 456.145455zM469.178182 648.843636l0-56.785455-25.134545 0 0 56.785455c0 22.341818 13.032727 40.029091 40.029091 40.029091l119.156364 0 0-25.134545L484.072727 663.738182C473.832727 663.738182 469.178182 657.221818 469.178182 648.843636zM641.396364 585.541818l-23.272727 9.309091 39.098182 92.16 23.272727-9.309091L641.396364 585.541818zM548.305455 644.189091l0-52.130909-25.134545 0 0 52.130909L548.305455 644.189091z" p-id="12095" fill="#e6c12b"></path><path d="M512 158.254545c9.309091 0 18.618182 10.24 25.134545 17.687273 21.410909 26.996364 47.476364 40.96 78.196364 40.96 13.963636 0 27.927273-2.792727 42.821818-9.309091 8.378182-3.723636 15.825455-5.585455 21.410909-5.585455 5.585455 0 17.687273 0 21.410909 30.72 7.447273 50.269091 38.167273 80.989091 88.436364 88.436364 10.24 1.861818 24.203636 4.654545 27.927273 13.032727 4.654545 7.447273 0.930909 21.410909-2.792727 30.72-18.618182 47.476364-7.447273 89.367273 32.581818 121.018182C855.505455 493.381818 865.745455 502.690909 865.745455 512s-10.24 18.618182-17.687273 25.134545c-40.029091 31.650909-51.2 73.541818-32.581818 121.018182 3.723636 10.24 7.447273 23.272727 2.792727 30.72-4.654545 7.447273-17.687273 11.170909-27.927273 13.032727-50.269091 7.447273-80.989091 38.167273-88.436364 88.436364-4.654545 30.72-15.825455 30.72-21.410909 30.72-5.585455 0-13.032727-1.861818-21.410909-5.585455-14.894545-5.585455-29.789091-9.309091-42.821818-9.309091-29.789091 0-55.854545 13.963636-78.196364 40.96C530.618182 855.505455 521.309091 865.745455 512 865.745455c-9.309091 0-18.618182-10.24-25.134545-17.687273-21.410909-26.996364-47.476364-40.96-78.196364-40.96-13.963636 0-27.927273 2.792727-42.821818 9.309091-8.378182 3.723636-15.825455 5.585455-21.410909 5.585455-5.585455 0-17.687273 0-21.410909-30.72-7.447273-50.269091-38.167273-80.989091-88.436364-88.436364-10.24-1.861818-24.203636-4.654545-27.927273-13.032727-4.654545-7.447273-0.930909-21.410909 2.792727-30.72 18.618182-47.476364 7.447273-89.367273-32.581818-121.018182C168.494545 530.618182 158.254545 521.309091 158.254545 512s10.24-18.618182 17.687273-25.134545c40.029091-31.650909 51.2-73.541818 32.581818-121.018182-3.723636-10.24-7.447273-23.272727-2.792727-30.72 4.654545-7.447273 17.687273-11.170909 27.927273-13.032727 50.269091-7.447273 80.989091-38.167273 88.436364-88.436364 4.654545-30.72 15.825455-30.72 21.410909-30.72 5.585455 0 13.032727 1.861818 21.410909 5.585455 14.894545 5.585455 29.789091 9.309091 42.821818 9.309091 29.789091 0 55.854545-13.963636 78.196364-40.96C493.381818 168.494545 502.690909 158.254545 512 158.254545M512 139.636364c-13.032727 0-26.065455 8.378182-40.029091 25.134545-17.687273 23.272727-39.098182 34.443636-63.301818 34.443636-11.170909 0-23.272727-2.792727-36.305455-7.447273-11.170909-4.654545-20.48-6.516364-28.858182-6.516364-22.341818 0-35.374545 15.825455-40.029091 46.545455-6.516364 41.890909-30.72 67.025455-72.610909 72.610909-41.890909 6.516364-55.854545 28.858182-40.029091 68.887273 15.825455 40.029091 6.516364 72.610909-26.996364 99.607273-33.512727 26.065455-33.512727 53.061818 0 79.127273 33.512727 26.065455 42.821818 59.578182 26.996364 99.607273-15.825455 40.029091-2.792727 62.370909 40.029091 68.887273 41.890909 6.516364 67.025455 30.72 72.610909 72.610909 4.654545 30.72 17.687273 46.545455 40.029091 46.545455 8.378182 0 17.687273-1.861818 28.858182-6.516364 13.032727-4.654545 25.134545-7.447273 36.305455-7.447273 24.203636 0 45.614545 11.170909 63.301818 34.443636 13.032727 16.756364 26.065455 25.134545 40.029091 25.134545s26.065455-8.378182 40.029091-25.134545c17.687273-23.272727 39.098182-34.443636 63.301818-34.443636 11.170909 0 23.272727 2.792727 36.305455 7.447273 11.170909 4.654545 20.48 6.516364 28.858182 6.516364 22.341818 0 35.374545-15.825455 40.029091-46.545455 6.516364-41.890909 30.72-67.025455 72.610909-72.610909 41.890909-6.516364 55.854545-28.858182 40.029091-68.887273-15.825455-40.029091-6.516364-72.610909 26.996364-99.607273 33.512727-26.065455 33.512727-53.061818 0-79.127273-33.512727-26.065455-42.821818-59.578182-26.996364-99.607273 15.825455-40.029091 2.792727-62.370909-40.029091-68.887273-41.890909-6.516364-67.025455-30.72-72.610909-72.610909-4.654545-30.72-17.687273-46.545455-40.029091-46.545455-8.378182 0-17.687273 1.861818-28.858182 6.516364-13.032727 4.654545-25.134545 7.447273-36.305455 7.447273-24.203636 0-45.614545-11.170909-63.301818-34.443636C538.065455 148.014545 525.032727 139.636364 512 139.636364L512 139.636364z" p-id="12096" fill="#e6c12b"></path><path d="M512 259.723636c138.705455 0 252.276364 113.570909 252.276364 252.276364S650.705455 764.276364 512 764.276364 259.723636 650.705455 259.723636 512 373.294545 259.723636 512 259.723636M512 250.414545c-144.290909 0-261.585455 117.294545-261.585455 261.585455S367.709091 773.585455 512 773.585455 773.585455 656.290909 773.585455 512 656.290909 250.414545 512 250.414545L512 250.414545z" p-id="12097" fill="#e6c12b"></path></svg>