<?xml version="1.0" standalone="no"?><!DOCTYPE svg PUBLIC "-//W3C//DTD SVG 1.1//EN" "http://www.w3.org/Graphics/SVG/1.1/DTD/svg11.dtd"><svg t="1586886174703" class="icon" viewBox="0 0 1024 1024" version="1.1" xmlns="http://www.w3.org/2000/svg" p-id="10298" xmlns:xlink="http://www.w3.org/1999/xlink" width="500" height="500"><defs><style type="text/css"></style></defs><path d="M429.6 611.2l51 69.4-221 306.8c-16.5 22.9-45.2 31-63.5 18.1l-11.9-8.4c-18.7-12.9-19.7-41.9-2.6-64.2l248-321.7zM972.9 215.1c-0.6 1-1.3 1.6-1.9 2.3-0.6 0.6-1 1.6-1.6 2.3l-140 188.1c-44.2 59.4-123.2 79-190 52.3L568 558.6l-47.4-64.8L579 418c-47.1-54.2-49-136.4-4.5-196.1L710.9 39c0.6-1 1.3-1.3 1.6-2.3 0.6-0.6 1-1.6 1.6-2.3 15.2-20.3 45.8-26.5 81.9-20 9.7 1.9 14.2 12.9 8.4 20.3L666.1 220.6c-7.7 10.6-5.5 25.5 5.5 33.2 11 7.7 26.5 5.2 34.2-5.5L841.9 66.1c11.9-16.1 35.2-20.3 51.6-9 0 0.3 0 0.3 0.3 0.3 0 0 0 0.3 0.3 0.3 16.5 11.3 19.4 34.2 7.4 50L765.4 290.3c-7.7 10.3-5.2 25.5 5.8 32.9 11 7.7 26.1 5.5 34.2-5.2l138.4-185.8c5.8-7.7 17.7-7.1 22.6 1.3 17.7 31.3 21.6 61.3 6.5 81.6z" p-id="10299" fill="#e6e6e6"></path><path d="M822.4 931.1L413 401.2c52.5-62.5 49.6-166-12.4-249-71.4-95.6-231-177.4-311.1-121.4C9.4 86.9 39.4 259.3 110.9 355c61.9 83 162.4 118.1 240.2 89.5L742 987.3c16.9 23.4 46.5 31.7 65.6 18.3l12.1-8.5c19.2-13.4 20.4-43.2 2.7-66z" p-id="10300" fill="#e6e6e6"></path></svg>