<?xml version="1.0" standalone="no"?><!DOCTYPE svg PUBLIC "-//W3C//DTD SVG 1.1//EN" "http://www.w3.org/Graphics/SVG/1.1/DTD/svg11.dtd"><svg t="1585414774237" class="icon" viewBox="0 0 1024 1024" version="1.1" xmlns="http://www.w3.org/2000/svg" p-id="15152" xmlns:xlink="http://www.w3.org/1999/xlink" width="300" height="300"><defs><style type="text/css"></style></defs><path d="M554.728 728.151a684.57 684.57 0 0 0 291.858 113.762l6.187-51.516c-93.828-13.459-192.093-50.91-270.168-104.655l-27.877 42.409zM898.308 92.355l-11.569 36.158C844.959 64.7 766.035 36.182 693.114 58.545c-72.924 22.369-122.291 90.238-121.105 166.5h54.234a117.329 117.329 0 0 1 53.454-100.721c34.03-22.075 77.052-25.002 113.766-7.743A116.01 116.01 0 0 1 838.292 154l-36.152-11.932-16.814 51.525 124.555 40.672 40.677-124.552-52.25-17.358zM822.865 304.975l-130.517-42.663-42.665 130.523 51.521 16.807 12.475-38.506c43.13 56.443 116.578 80.473 184.725 60.426 68.148-20.042 116.895-80.007 122.594-150.811l-54.229-4.521a117.344 117.344 0 0 1-58.051 91.937 117.336 117.336 0 0 1-108.629 4.779 116.453 116.453 0 0 1-40.493-31.999l46.101 15.005 17.168-50.977z" fill="#3DAE36" p-id="15153"></path><path d="M935.199 915.118c-71.602 15.014-203.022 4.466-365.516-102.206-197.488-129.609-395.052-47.69-514.492-3.465l1.732-637.567c56.323-28.384 145.137-91.675 377.064-51.103l0.864-44.947C153.073 14.342 4 147.981 4 147.981v742.663l49.906-22.229c3.78-1.658 269.238-147.181 482.101-7.635 145.457 94.605 267.498 115.183 343.657 115.183a309.889 309.889 0 0 0 83.962-9.695l25.072-7.571V517.831H936.93l-1.731 397.287z" fill="#3DAE36" p-id="15154"></path><path d="M437.527 447.729V390.68h-88.105l91.96-81.365-40.315-40.313-84.538 73.758-79.983-68.923-40.313 40.313 87.398 76.53H198.29v57.049h89.716v20.535H198.29v57.049h89.716v98.421h57.042v-98.421h92.479v-57.049h-92.479v-20.535z" fill="#3DAE36" p-id="15155"></path></svg>