<?xml version="1.0" standalone="no"?><!DOCTYPE svg PUBLIC "-//W3C//DTD SVG 1.1//EN" "http://www.w3.org/Graphics/SVG/1.1/DTD/svg11.dtd"><svg t="1585383865914" class="icon" viewBox="0 0 1815 1024" version="1.1" xmlns="http://www.w3.org/2000/svg" p-id="10088" xmlns:xlink="http://www.w3.org/1999/xlink" width="531.73828125" height="300"><defs><style type="text/css"></style></defs><path d="M0 0m146.738665 0l1137.224655 0q146.738665 0 146.738665 146.738665l0 513.585328q0 146.738665-146.738665 146.738665l-1137.224655 0q-146.738665 0-146.738665-146.738665l0-513.585328q0-146.738665 146.738665-146.738665Z" fill="#3882FF" p-id="10089"></path><path d="M706.473303 327.59407V287.020829h-82.687238c6.163024-14.380389 11.812463-29.787949 15.921146-45.195509h51.872118V201.765665h-120.178967c-3.595097-14.893975-7.70378-28.760778-11.812463-41.086827l-51.872118 8.730951c4.622268 9.758121 9.244536 20.543413 13.353219 32.355876h-110.420846v40.059655h43.141168c6.163024 13.866804 11.298877 28.760778 16.43473 45.195509h-74.983458V327.59407h311.232709zM252.463873 577.710125c51.358533-15.40756 99.635554-34.410217 144.831063-57.007972V471.397962c-19.516242 9.244536-38.5189 17.461901-58.035142 24.652095v-161.779378h40.573241V287.020829H339.259794V168.382618h-48.790606v118.638211H241.164996v47.24985h49.304192v177.700524a914.181884 914.181884 0 0 1-50.844948 12.326047l12.839633 53.412875z m324.072342-290.689296h-60.089483c-4.622268-15.921145-9.244536-30.81512-13.866804-45.195509h92.445359a199.564585 199.564585 0 0 1-18.489072 45.195509z m-201.839034 354.373876c50.331362-12.326048 86.282335-28.247193 107.852919-48.277021 18.489072-19.002657 31.328705-43.141168 37.491729-72.415531h43.654753v65.225337c0 31.328705 14.893975 47.24985 45.709094 47.24985h56.494386c15.40756 0 27.220022-3.595097 35.437388-10.785292 7.70378-7.70378 13.353219-30.81512 16.43473-69.334019l-43.141167-13.866804c-1.027171 25.679266-3.081512 40.573241-6.163024 45.709094-2.567927 4.108683-6.163024 6.676609-10.785292 6.676609h-34.923802c-7.70378 0-11.298877-5.135853-11.298878-14.893974v-55.980801h62.65741v-169.483158h-250.116054v169.483158h50.844947a91.711666 91.711666 0 0 1-29.274363 43.654753c-18.489072 14.380389-48.277021 25.679266-89.363847 33.383046l18.489071 43.654753z m254.738323-222.896032h-160.752208v-28.760778h160.752208v28.760778z m0 62.65741h-160.752208v-28.760778h160.752208v28.760778z m165.888061 148.42616c133.0186-79.09214 208.002058-196.703181 225.463959-351.80595V234.635125h-121.719723c6.163024-19.516242 11.298877-39.54607 15.921145-60.089483l-48.790606-8.217365c-20.543413 90.391018-59.575898 162.292964-117.097455 215.705838l33.896632 42.113996c41.086826-38.005314 73.956287-85.255164 98.608383-142.776721h91.418188c-7.70378 49.304191-21.570584 94.4997-42.113997 135.586527a421.873662 421.873662 0 0 0-73.442701-48.277021l-25.679267 38.005314c25.679266 12.326048 51.358533 28.247193 76.524214 48.790606-35.437388 53.412874-84.227994 97.581212-146.371818 132.505015l33.383046 41.600412z m308.664782 9.758121v-266.0372c26.706437 22.597754 59.062313 53.412874 97.067627 92.958944l30.301534-45.709094a1621.242141 1621.242141 0 0 0-127.369161-101.689895V166.841862H1054.684155v472.498502h49.304192z" fill="#FFFFFF" p-id="10090"></path></svg>