<?xml version="1.0" standalone="no"?><!DOCTYPE svg PUBLIC "-//W3C//DTD SVG 1.1//EN" "http://www.w3.org/Graphics/SVG/1.1/DTD/svg11.dtd"><svg t="1585386748037" class="icon" viewBox="0 0 1024 1024" version="1.1" xmlns="http://www.w3.org/2000/svg" p-id="10673" xmlns:xlink="http://www.w3.org/1999/xlink" width="300" height="300"><defs><style type="text/css"></style></defs><path d="M512.00151 0c-282.772003 0-512.001022 229.208577-512.001022 512.001022 0 282.749518 229.227997 511.998978 512.001022 511.998978 282.767915 0 511.997956-229.250482 511.997956-511.998978C1023.999466 229.208577 794.769425 0 512.00151 0zM402.566832 968.477273c-206.423654-49.30141-359.900189-234.969965-359.900189-456.498736 0-49.34127 7.62257-96.902101 21.741393-141.577639 5.381179 35.051762 67.423666 42.49036 80.382444 5.973977 18.960351 11.458385 44.416955 13.541356 44.416955 36.436662 0 75.583843 2.64613 156.604057 70.35393 157.875508 1.895933 0.021463 37.728554 13.770299 54.812391 58.646161 5.895278 15.520076 29.229051 0 54.812391 0 12.770718 0 0 21.833379 0 69.040575 0 47.041621 99.936616 119.43764 99.936616 119.43764-0.479349 31.146447 0.792101 56.312784 3.332958 76.415805C384.155331 892.566368 350.175716 943.820947 402.566832 968.477273zM512.00151 981.312381c-6.887704 0-13.738615-0.157398-20.554774-0.450731 102.546973-8.14689 133.405197-113.726334 73.970001-97.903726 14.084073-60.852802 20.936005-94.957109 50.332675-120.831738 42.562927-37.416823 5.085802-79.043538-27.292235-74.124333-25.519972 3.915536-9.394833-32.064262-32.165447-34.044005-22.792077-1.958279-52.54136-47.91651-85.333333-63.729919-17.376148-8.353347-34.457942-30.811209-61.249364-31.811812-23.749753-0.937235-58.458101 20.375913-58.458101 3.958463 0-52.915436-5.292259-90.667497-6.375649-105.749107-0.875911-12.124772-7.812674-4.084177 24.312912-3.291053 17.477333 0.457886 8.936947-35.625141 26.228264-37.041725 17.00105-1.35526 57.479984 16.144558 67.79161 9.16589 9.582893-6.500341 70.438762 162.04145 70.438762 27.875835 0-15.938101-8.125427-43.625876 0-58.70953 32.143984-59.582374 62.228504-108.145852 59.541491-115.250235-1.545364-3.999345-32.896224-7.312884-57.980796 1.230568-8.475995 2.875072 2.690078 16.311155-9.476598 19.18725-45.562691 10.687747-85.814727-12.457966-71.710212-34.208557 14.437708-22.292287 66.729683-9.709629 71.312629-54.416851 2.64613-25.624223 4.833351-55.271299 6.29184-77.333621 62.111988 9.869072 54.378013-83.083766-40.201954-90.734953 6.824336-0.294355 13.683423-0.451753 20.579304-0.451753 259.206222 0 469.3318 210.144998 469.3318 469.332822C981.33331 771.187825 771.207732 981.312381 512.00151 981.312381zM906.812416 409.292562c2.354841-45.125247-4.272237-77.792529-23.856048-79.792712-27.561039-69.874581-94.47776-19.312964-71.769492 42.291057-121.60442 94.85388-90.478415 160.999964-50.521757 198.897159 21.020837 19.895542 41.061512 49.853326 54.125562 71.353511-18.707901 55.334667 102.563326 8.687563 102.563326-130.039533C917.354007 476.708052 913.707275 442.374803 906.812416 409.292562z" p-id="10674" fill="#7dc5eb"></path></svg>