<?xml version="1.0" standalone="no"?><!DOCTYPE svg PUBLIC "-//W3C//DTD SVG 1.1//EN" "http://www.w3.org/Graphics/SVG/1.1/DTD/svg11.dtd"><svg t="1585414712084" class="icon" viewBox="0 0 1024 1024" version="1.1" xmlns="http://www.w3.org/2000/svg" p-id="14337" xmlns:xlink="http://www.w3.org/1999/xlink" width="300" height="300"><defs><style type="text/css"></style></defs><path d="M482.372267 353.536h246.152533c54.9888 0 108.868267 44.8 120.234667 99.857067l31.3344 150.954666a106.1888 106.1888 0 0 1 61.730133 88.661334l7.133867 96.546133c2.935467 41.659733-20.155733 79.086933-56.132267 94.2592-8.2944 33.450667-37.751467 54.869333-72.430933 54.869333-32.187733 0-59.648-20.736-70.229334-50.602666H460.663467c-10.478933 29.866667-37.973333 50.602667-70.1952 50.602666-34.6112 0-64.1024-21.418667-72.430934-54.869333-35.9424-15.172267-59.016533-52.599467-56.1152-94.2592l7.168-96.546133c2.6624-38.775467 27.067733-72.9088 61.696-88.661334l31.317334-150.954666c11.4176-55.057067 65.501867-99.857067 120.2688-99.857067z m-124.7232 387.413333c0 30.532267 25.019733 55.227733 55.893333 55.227734 31.0272 0 56.081067-24.695467 56.081067-55.227734 0-30.5664-25.053867-55.261867-56.081067-55.261866-30.8736 0-55.893333 24.695467-55.893333 55.261866z m383.573333 0c0 30.532267 25.053867 55.227733 56.132267 55.227734 30.839467 0 55.876267-24.695467 55.876266-55.227734 0-30.5664-25.0368-55.261867-55.876266-55.261866-31.0784 0-56.132267 24.695467-56.132267 55.261866z m-316.484267-140.424533c3.328 4.010667 7.970133 4.5056 13.312 4.5056 1.7408 0 3.549867-0.0512 5.410134-0.0512h323.959466c7.594667 0 14.301867 0.8704 18.568534-4.232533 4.488533-5.1712 6.229333-12.509867 5.0688-20.309334l-0.4096-1.570133-25.4976-114.773333c-3.089067-17.834667-20.343467-32.785067-37.973334-32.785067H483.754667c-17.698133 0-34.901333 14.9504-38.2464 32.785067l-25.258667 114.773333-0.443733 1.570133c-1.160533 7.799467 0.6656 14.967467 4.932266 20.087467zM344.644267 154.197333c3.925333 7.5776 9.608533 13.9264 16.418133 18.602667a51.694933 51.694933 0 0 0-34.235733 11.605333 51.234133 51.234133 0 0 0-18.722134 39.5776v15.36a51.2 51.2 0 0 0 22.647467 42.496l4.642133 3.1232c-8.704 4.881067-20.8384 4.864-25.309866 11.810134-6.2976 9.728 43.451733 19.831467 69.12 17.595733l3.157333 2.133333-39.099733 34.133334-18.005334 40.004266c-5.000533-8.977067-9.216-17.220267-10.6496-16.042666-2.9184 1.962667-10.496 0.085333-18.0224-1.792-5.768533-1.450667-11.502933-2.901333-15.0528-2.6112-8.430933 0.6144-4.215467 18.141867-12.8 18.005333-15.598933-0.494933-12.2368-4.437333-11.758933 1.4848 0.512 7.355733 3.089067 25.685333 3.089067 51.592533 0 4.932267 6.656 2.7136 14.455466 0.494934 4.625067-1.3312 9.659733-2.645333 13.943467-2.474667 8.362667 0.341333 14.711467 4.778667 20.309333 9.198933l-11.793066 41.745067-25.821867 27.050667a27.067733 27.067733 0 0 1-2.423467-10.018134c0-22.920533 6.314667-33.553067 0-33.553066-12.407467 0-23.671467 7.543467-26.641066 0-8.209067-21.8112-25.838933-28.5184-26.624-28.5184-32.938667-0.494933-34.269867-39.9872-34.269867-76.817067 0-11.127467-12.3904-12.1344-21.6064-17.7152-5.154133 14.592-26.299733 14.762667-35.208533 5.12-2.901333 13.892267-4.5056 28.484267-4.5056 43.3664 0 88.302933 53.777067 163.9936 129.962666 195.140267L249.207467 631.466667C153.787733 598.545067 85.333333 506.965333 85.333333 399.1552 85.333333 263.5264 193.6896 153.6 327.5264 153.6c5.751467 0 11.4688 0.2048 17.117867 0.597333zM814.2336 68.608s2.304-0.341333 6.024533-0.341333c9.147733 0 26.897067 1.979733 40.277334 15.701333 5.5808 8.891733 0 31.112533 0 31.112533L459.4176 301.550933l-92.603733-62.225066v-15.342934l77.124266 15.342934 123.409067-62.020267-154.248533-46.660267h-15.496534l15.496534-15.5648 277.674666 15.5648 123.460267-62.037333z" p-id="14338" fill="#7dc5eb"></path></svg>