<?xml version="1.0" standalone="no"?><!DOCTYPE svg PUBLIC "-//W3C//DTD SVG 1.1//EN" "http://www.w3.org/Graphics/SVG/1.1/DTD/svg11.dtd"><svg t="1582573670179" class="icon" viewBox="0 0 1024 1024" version="1.1" xmlns="http://www.w3.org/2000/svg" p-id="5238" xmlns:xlink="http://www.w3.org/1999/xlink" width="200" height="200"><defs><style type="text/css"></style></defs><path d="M683.256905 885.855896l-58.603566-34.057918q0.681824-0.898012 1.297128-1.796023l58.603566 34.057918q-0.615304 0.898012-1.297128 1.796023" fill="#d4237a" p-id="5239"></path><path d="M684.554033 884.059873l-58.603566-34.057918c0.665194-0.947901 1.313758-1.912432 1.929061-2.893593l58.603566 34.057918c-0.615304 0.981161-1.263868 1.945692-1.929061 2.893593" fill="#d4237a" p-id="5240"></path><path d="M686.483094 881.16628l-58.603566-34.057918c0.615304-0.947901 1.197349-1.912432 1.779394-2.893593l58.603566 34.057918c-0.582044 0.981161-1.164089 1.945692-1.779394 2.893593" fill="#d4237a" p-id="5241"></path><path d="M688.262488 878.272687l-58.603566-34.057918c0.565415-0.981161 1.130829-1.978951 1.662984-3.010001l58.586936 34.057918c-0.532155 1.01442-1.09757 2.028841-1.662984 3.010001" fill="#d4237a" p-id="5242"></path><path d="M689.925472 875.262686l-58.586936-34.057918c0.548785-1.04768 1.08094-2.09536 1.662984-3.19293l58.603566 34.057918c-0.532155 1.08094-1.06431 2.14525-1.662984 3.19293" fill="#d4237a" p-id="5243"></path><path d="M691.555197 872.069756l-58.603567-34.057918q0.831492-1.662984 1.662985-3.492267l58.603566 34.057918q-0.764973 1.796023-1.662984 3.492267" fill="#d4237a" p-id="5244"></path><path d="M693.151661 868.577489l-58.603566-34.057918c0.548785-1.280498 1.08094-2.594255 1.662985-3.924643L694.681607 864.652846c-0.515525 1.330387-1.04768 2.644145-1.662984 3.924643" fill="#d4237a" p-id="5245"></path><path d="M694.681607 864.652846l-58.537047-34.057918c0.582044-1.513316 1.147459-3.059891 1.662985-4.623096l58.537046 34.057918c-0.532155 1.563205-1.08094 3.109781-1.662984 4.623096" fill="#d4237a" p-id="5246"></path><path d="M696.344591 860.02975l-58.537046-34.057918c0.631934-1.879172 1.213979-3.791604 1.762763-5.753926l58.603566 34.041288c-0.548785 1.978951-1.130829 3.891383-1.762763 5.770556" fill="#d4237a" p-id="5247"></path><path d="M698.173874 854.259194l-58.603566-34.041288c0.698453-2.527736 1.330387-5.105362 1.895802-7.782766L700.069676 846.459798c-0.565415 2.677405-1.197349 5.25503-1.895802 7.766137" fill="#d4237a" p-id="5248"></path><path d="M700.069676 846.459798L641.46611 812.43514c0.565415-2.644145 1.06431-5.371439 1.513316-8.165253l58.603566 34.057918a162.190857 162.190857 0 0 1-1.513316 8.165253" fill="#d4237a" p-id="5249"></path><path d="M701.582992 838.327805l-58.603566-34.057918h18.409236l58.603566 34.057918h-18.409236z" fill="#d4237a" p-id="5250"></path><path d="M623.43936 915.04127l-58.603566-34.041288 0.216188 0.116408 58.603566 34.057919-0.216188-0.133039" fill="#d4237a" p-id="5251"></path><path d="M623.655548 915.174309l-58.603566-34.057919a33.791841 33.791841 0 0 0 3.492267 1.662985l58.603566 34.057918a33.791841 33.791841 0 0 1-3.492267-1.662984" fill="#d4237a" p-id="5252"></path><path d="M627.147815 916.887182l-58.603566-34.057918a28.653219 28.653219 0 0 0 3.093151 1.09757L630.240966 917.968122a28.653219 28.653219 0 0 1-3.093151-1.097569" fill="#d4237a" p-id="5253"></path><path d="M630.240966 917.968122L571.62077 883.926834a28.53681 28.53681 0 0 0 2.810444 0.648564l58.603566 34.057918a27.48913 27.48913 0 0 1-2.810444-0.648564" fill="#d4237a" p-id="5254"></path><path d="M633.051409 918.633316l-58.603566-34.057918a23.880454 23.880454 0 0 0 2.644145 0.315967l58.603567 34.057918a23.880454 23.880454 0 0 1-2.644146-0.315967" fill="#d4237a" p-id="5255"></path><path d="M635.695555 918.949283l-58.603567-34.057918h2.577626l58.603566 34.057918h-2.577625" fill="#d4237a" p-id="5256"></path><path d="M638.27318 918.982543l-58.603566-34.057919c0.881382 0 1.662984-0.133039 2.627515-0.266077l58.603566 34.057918c-0.881382 0.133039-1.746133 0.216188-2.627515 0.266078" fill="#d4237a" p-id="5257"></path><path d="M640.900695 918.716465L582.297129 884.708437a21.984652 21.984652 0 0 0 2.827073-0.598675l58.603567 34.057918c-0.947901 0.249448-1.895802 0.449006-2.827074 0.598675" fill="#d4237a" p-id="5258"></path><path d="M643.727769 918.117791l-58.603567-34.057918a25.543439 25.543439 0 0 0 3.442378-1.180719l58.603566 34.057918a28.087805 28.087805 0 0 1-3.442377 1.180719" fill="#d4237a" p-id="5259"></path><path d="M647.170146 916.937072l-58.603566-34.057918a31.812889 31.812889 0 0 0 3.924643-1.945692 100.993035 100.993035 0 0 0 20.604375-15.781721l58.603566 34.057918a100.993035 100.993035 0 0 1-20.604375 15.781721 31.812889 31.812889 0 0 1-3.924643 1.945692" fill="#d4237a" p-id="5260"></path><path d="M671.699164 899.209659l-58.603566-34.057918c1.995581-1.962321 3.924643-4.041052 5.820445-6.202931L677.519609 893.023358c-1.895802 2.16188-3.824864 4.22398-5.820445 6.202931" fill="#d4237a" p-id="5261"></path><path d="M677.519609 893.023358l-58.603566-34.057918c1.446796-1.662984 2.876963-3.425748 4.27387-5.221771l58.603566 34.057918c-1.396907 1.796023-2.827073 3.542157-4.27387 5.221771" fill="#d4237a" p-id="5262"></path><path d="M681.793479 887.784957L623.173283 853.727039c0.498895-0.631934 0.981161-1.280498 1.463426-1.929061l58.603566 34.057918c-0.482265 0.648564-0.964531 1.297128-1.463426 1.929061" fill="#d4237a" p-id="5263"></path><path d="M578.638564 1020.85696L520.068257 986.799042q-19.323877-11.241774-47.478201-73.171309l58.603566 34.057918q28.137694 61.912905 47.478201 73.171309" fill="#d4237a" p-id="5264"></path><path d="M505.700073 931.039179l-58.603566-34.057918a53.597983 53.597983 0 0 0 11.025586-8.148623L516.742289 922.957075a54.196658 54.196658 0 0 1-11.025586 8.148623" fill="#d4237a" p-id="5265"></path><path d="M516.742289 922.957075l-58.603566-34.057918c0.665194-0.648564 1.280498-1.297128 1.862542-1.962322l58.603566 34.057919c-0.582044 0.665194-1.197349 1.313758-1.862542 1.962321" fill="#d4237a" p-id="5266"></path><path d="M518.588201 920.928234l-58.603566-34.057918c0.382486-0.465636 0.764973-0.914641 1.13083-1.380277L519.719031 919.631106c-0.365857 0.465636-0.748343 0.914641-1.13083 1.380277" fill="#d4237a" p-id="5267"></path><path d="M519.719031 919.631106l-58.603566-34.057918c0.282707-0.365857 0.548785-0.731713 0.814862-1.114199l58.603566 34.057918c-0.266077 0.382486-0.532155 0.748343-0.814862 1.114199" fill="#d4237a" p-id="5268"></path><path d="M520.533893 918.433758L461.863807 884.37584c0.232818-0.315967 0.449006-0.648564 0.665194-0.981161l58.603566 34.057918c-0.216188 0.332597-0.432376 0.665194-0.665193 0.981161" fill="#d4237a" p-id="5269"></path><path d="M521.199087 917.452597l-58.603566-34.057918 0.548784-0.914641L521.731242 916.537956l-0.548785 0.914641" fill="#d4237a" p-id="5270"></path><path d="M521.731242 916.537956l-58.603566-34.057918v-0.133039L521.731242 916.388287l-0.08315 0.149669" fill="#d4237a" p-id="5271"></path><path d="M386.44747 959.725657l-58.603566-34.057918 0.565415 0.332597L387.029515 960.041624l-0.565415-0.315967" fill="#d4237a" p-id="5272"></path><path d="M387.029515 960.041624l-58.603566-34.041288a54.529255 54.529255 0 0 0 5.504478 2.677405l58.603566 34.057918a51.253176 51.253176 0 0 1-5.504478-2.694035" fill="#d4237a" p-id="5273"></path><path d="M392.517363 962.735659l-58.603566-34.057918c1.496686 0.615304 3.059891 1.197349 4.672986 1.662984l1.779393 0.548785 58.603566 34.057918-1.779393-0.548785c-1.662984-0.532155-3.1763-1.114199-4.672986-1.662984" fill="#d4237a" p-id="5274"></path><path d="M398.969742 965.013948l-58.603566-34.057919a61.114672 61.114672 0 0 0 6.485638 1.496686l58.603567 34.057918a61.114672 61.114672 0 0 1-6.485639-1.496685" fill="#d4237a" p-id="5275"></path><path d="M405.455381 966.510633l-58.603567-34.057918a66.203404 66.203404 0 0 0 6.868126 0.798233l58.603566 34.057918a66.203404 66.203404 0 0 1-6.868125-0.798233" fill="#d4237a" p-id="5276"></path><path d="M412.323506 967.308866L353.769829 933.250948a66.519371 66.519371 0 0 0 7.516689 0l58.603566 34.057918a70.593683 70.593683 0 0 1-7.516689 0" fill="#d4237a" p-id="5277"></path><path d="M419.840195 967.375385l-58.603566-34.057918a78.991753 78.991753 0 0 0 8.630888-0.864752l58.603566 34.057918a78.991753 78.991753 0 0 1-8.630888 0.864752" fill="#d4237a" p-id="5278"></path><path d="M428.471083 966.510633l-58.603566-34.057918a94.790104 94.790104 0 0 0 10.659729-2.261658l58.603566 34.057918a98.681487 98.681487 0 0 1-10.659729 2.261658" fill="#d4237a" p-id="5279"></path><path d="M439.130812 964.248975l-58.603566-34.057918a123.908959 123.908959 0 0 0 15.232936-5.255031l58.586937 34.057918a122.7615 122.7615 0 0 1-15.216307 5.255031" fill="#d4237a" p-id="5280"></path><path d="M454.347119 958.993944l-58.586937-34.057918a177.939318 177.939318 0 0 0 21.336089-10.643099l29.933717-17.311666 58.603566 34.057918-29.933717 17.311666a178.155506 178.155506 0 0 1-21.352718 10.643099" fill="#d4237a" p-id="5281"></path><path d="M521.831021 916.388287l-58.603566-34.041288q-14.068847-71.508324-32.661012-111.419947-7.533319-16.064428-18.01012-22.150951l58.603567 34.057918q10.510061 6.119782 18.010119 22.134321 18.592164 39.828474 32.661012 111.419947" fill="#d4237a" p-id="5282"></path><path d="M332.284072 887.651919l-58.603566-34.057918q1.762763-5.654147 3.592046-11.125365l58.603566 34.057918q-1.812653 5.454588-3.592046 11.125365" fill="#d4237a" p-id="5283"></path><path d="M335.876118 876.526554L277.272552 842.468636q4.19072-12.572161 8.630889-24.080013l58.603566 34.057918q-4.440168 11.524481-8.630889 24.080013" fill="#d4237a" p-id="5284"></path><path d="M344.507007 852.446541l-58.603566-34.057918q3.625306-9.379231 7.36702-18.076639l58.603566 34.057918q-3.774974 8.680778-7.36702 18.076639" fill="#d4237a" p-id="5285"></path><path d="M351.874027 834.369902l-58.603566-34.057918q3.20956-7.38365 6.535528-14.285035l58.603566 34.057918q-3.325969 6.884755-6.535528 14.285035" fill="#d4237a" p-id="5286"></path><path d="M358.409555 820.084867l-58.603566-34.057918q2.943482-6.119782 5.986744-11.823818L364.396299 808.21116q-3.043261 5.720666-5.986744 11.823818" fill="#d4237a" p-id="5287"></path><path d="M364.396299 808.21116l-58.603566-34.008029c1.845913-3.492267 3.725085-6.851495 5.620886-10.110945L370.017186 798.233254c-1.895802 3.325969-3.774974 6.651937-5.620887 10.110944" fill="#d4237a" p-id="5288"></path><path d="M370.017186 798.233254l-58.603567-34.141068c1.180719-2.012211 2.378068-4.007792 3.575417-5.936853 0.382486-0.631934 0.781603-1.263868 1.180718-1.895802l58.603567 34.057918c-0.399116 0.631934-0.798232 1.263868-1.180719 1.895802-1.197349 1.929062-2.394697 3.908013-3.575416 5.936854" fill="#d4237a" p-id="5289"></path><path d="M374.773321 790.317449l-58.603567-34.057918c1.180719-1.829283 2.411327-3.658565 3.675196-5.471219L378.448516 784.92938c-1.263868 1.812653-2.494476 3.625306-3.675195 5.471218" fill="#d4237a" p-id="5290"></path><path d="M378.448516 784.92938L319.84495 750.788312q2.14525-3.076521 4.473427-6.069892l58.603567 34.057918q-2.328178 2.993372-4.473428 6.069892" fill="#d4237a" p-id="5291"></path><path d="M382.921944 778.776338l-58.603567-34.057918a165.01793 165.01793 0 0 1 5.837075-7.100943L388.692499 771.625505q-3.043261 3.492267-5.837075 7.100943" fill="#d4237a" p-id="5292"></path><path d="M388.692499 771.625505l-58.537047-34.008028q4.290499-4.988953 9.046635-9.628679l58.603566 34.057918c-3.1763 3.12641-6.186302 6.3526-9.046635 9.628679" fill="#d4237a" p-id="5293"></path><path d="M397.805653 762.046716l-58.603566-34.057918a219.829892 219.829892 0 0 1 44.900575-33.625542A165.400417 165.400417 0 0 1 403.659358 684.651427l58.603566 34.057918A165.400417 165.400417 0 0 0 442.739488 728.387914a219.829892 219.829892 0 0 0-44.900575 33.625542" fill="#d4237a" p-id="5294"></path><path d="M462.196404 718.709345L403.659358 684.651427a109.474255 109.474255 0 0 1 13.486802-4.656356l58.603566 34.057918a109.474255 109.474255 0 0 0-13.486802 4.656356" fill="#d4237a" p-id="5295"></path><path d="M475.683207 714.052989l-58.603566-34.057918a82.650319 82.650319 0 0 1 9.179673-1.962321l58.603566 34.057918a79.041643 79.041643 0 0 0-9.179673 1.962321" fill="#d4237a" p-id="5296"></path><path d="M484.86288 712.090668l-58.603566-34.057918a66.868598 66.868598 0 0 1 7.317131-0.731713l58.603566 34.057918a66.868598 66.868598 0 0 0-7.317131 0.731713" fill="#d4237a" p-id="5297"></path><path d="M492.180011 711.358955L433.593075 677.301037a55.277598 55.277598 0 0 1 6.219561 0L498.449462 711.408844a54.878481 54.878481 0 0 0-6.202932 0" fill="#d4237a" p-id="5298"></path><path d="M498.449462 711.408844l-58.586937-34.057918a51.552513 51.552513 0 0 1 5.604257 0.648564l58.603567 34.057918a51.402844 51.402844 0 0 0-5.620887-0.648564" fill="#d4237a" p-id="5299"></path><path d="M504.003829 712.057408L445.400263 677.99949q2.644145 0.482265 5.188511 1.197349l58.603566 34.057918q-2.544366-0.715083-5.188511-1.197349" fill="#d4237a" p-id="5300"></path><path d="M509.19234 713.254757l-58.603566-34.057918a47.411682 47.411682 0 0 1 4.988953 1.762763L514.148033 715.08404a47.411682 47.411682 0 0 0-4.988953-1.762764" fill="#d4237a" p-id="5301"></path><path d="M514.148033 715.08404l-58.603566-34.124438a46.397261 46.397261 0 0 1 4.839284 2.361438l58.603567 34.057918a46.397261 46.397261 0 0 0-4.839285-2.361438" fill="#d4237a" p-id="5302"></path><path d="M518.987318 717.378958l-58.603567-34.057918 0.532155 0.299337 58.603567 34.057918-0.532155-0.299337" fill="#d4237a" p-id="5303"></path><path d="M581.598676 828.549457l-58.537047-34.057918 0.748343-1.06431 58.603566 34.057918-0.748343 1.06431" fill="#d4237a" p-id="5304"></path><path d="M582.413538 827.485147l-58.603566-34.057918c1.164089-1.662984 2.328178-3.325969 3.459007-5.171881l58.603566 34.057918c-1.130829 1.779393-2.294918 3.508897-3.459007 5.171881" fill="#d4237a" p-id="5305"></path><path d="M585.872545 822.313266L527.268979 788.255348c1.164089-1.812653 2.294918-3.675195 3.325969-5.587627l58.603566 34.057918c-1.114199 1.912432-2.245029 3.774974-3.409118 5.587627" fill="#d4237a" p-id="5306"></path><path d="M589.281663 816.725639l-58.603566-34.057918c1.180719-2.012211 2.328178-4.090941 3.475637-6.236191l58.603566 34.057918c-1.147459 2.14525-2.294918 4.22398-3.475637 6.236191" fill="#d4237a" p-id="5307"></path><path d="M592.7573 810.489448l-58.603566-34.057918q1.845913-3.442377 3.608676-7.134203l58.603566 34.057918c-1.180719 2.461217-2.394697 4.839284-3.608676 7.134203" fill="#d4237a" p-id="5308"></path><path d="M596.365976 803.355245l-58.603566-34.057918c1.330387-2.743924 2.610885-5.587627 3.891383-8.514479L600.257359 794.907285c-1.280498 2.926852-2.560996 5.770555-3.891383 8.51448" fill="#d4237a" p-id="5309"></path><path d="M600.257359 794.907285L541.687053 760.782848q2.195139-4.988953 4.27387-10.493431l58.603566 34.057918q-2.07873 5.437959-4.27387 10.493431" fill="#d4237a" p-id="5310"></path><path d="M604.531229 784.347335l-58.603566-34.057918c1.662984-4.390279 3.325969-8.963485 4.988953-13.71962l58.603566 34.057918c-1.662984 4.756135-3.22619 9.329342-4.988953 13.71962" fill="#d4237a" p-id="5311"></path><path d="M609.453663 770.627715l-58.603567-34.057918q3.076521-9.212933 5.870335-19.323878l58.603566 34.057918q-2.793814 10.110944-5.870334 19.323878" fill="#d4237a" p-id="5312"></path><path d="M615.323997 751.303837L556.653912 717.245919q4.024422-14.451333 7.500059-30.715319l58.603566 34.057918q-3.492267 16.263986-7.500059 30.715319" fill="#d4237a" p-id="5313"></path><path d="M622.824056 720.588518l-58.603566-34.057918q3.941273-18.475755 7.200722-39.329579 1.895802-12.073266 3.542157-24.844985l58.603566 34.057918q-1.662984 12.771719-3.542157 24.844985-3.325969 20.853823-7.200722 39.329579" fill="#d4237a" p-id="5314"></path><path d="M633.566935 656.413954L574.946739 622.356036q12.372603-95.405408 11.990116-231.055036-0.582044-206.875245-40.1777-292.934681Q532.075004 66.52017 510.090352 53.74845l58.670085 34.057918q21.918133 12.73846 36.585654 44.617869 39.595656 86.059437 40.177701 292.934681 0.399116 135.649628-11.990117 231.055036" fill="#d4237a" p-id="5315"></path><path d="M683.256905 885.855896q13.80277-18.509015 18.292827-47.528091h18.409236q-13.653101 71.724512-36.585654 114.26365T628.162236 1013.739387q-23.015702 13.303874-43.803006 9.379231t-53.215497-75.416337q-4.623096 7.982325-18.442496 15.948019l-36.901621 21.302829Q374.307685 1043.573325 295.565379 982.824509T216.14125 673.210095q-0.598674-211.930717 68.182355-376.349973T473.18873 63.194201Q583.926854-0.764175 658.095953 75.716473t74.834293 298.871535q0.532155 185.339598-38.431567 303.261814T600.273989 875.395725q9.279452 31.763 23.165371 39.645545a26.025704 26.025704 0 0 0 27.655429 0 106.430994 106.430994 0 0 0 32.162116-29.185374zM581.598676 828.549457q32.378304-45.216543 48.359583-147.290518t15.532273-255.900021q-0.565415-206.875245-40.1777-292.934681T473.305139 99.779855Q394.712502 145.146066 348.780876 277.918732T303.447925 622.888191q0.299337 106.065138 7.500059 173.582299t21.336088 91.181429q18.292827-58.304229 41.30853-95.438668T442.739488 728.387914q55.344117-31.962558 85.494022-4.27387t53.365166 104.435413m-75.965122 102.489722c7.682987-4.440168 13.071056-9.296082 16.130947-14.650892q-14.068847-71.508324-32.661011-111.336798T433.593075 786.592364q-18.475755 10.676359-43.786376 46.56356t-25.160953 83.631479q0.099779 37.167699 32.478083 47.69439t78.509488-16.114318l29.933717-17.311667" fill="#d4237a" p-id="5316"></path><path d="M313.608759 995.047444l-58.603566-34.057918a167.19644 167.19644 0 0 1-18.02675-12.156416Q158.252767 888.167444 157.537684 639.152177a1149.122139 1149.122139 0 0 1 9.113154-150.732895l58.603566 34.057918a1149.122139 1149.122139 0 0 0-9.113154 150.732895Q216.856333 922.208732 295.565379 982.824509a167.19644 167.19644 0 0 0 18.02675 12.156415" fill="#d4237a" p-id="5317"></path><path d="M225.254404 522.4772L166.650838 488.419282q5.155251-39.811844 13.303874-77.628106l58.537047 34.057918q-8.082104 37.816263-13.303875 77.628106" fill="#d4237a" p-id="5318"></path><path d="M238.491759 444.849094L179.888193 410.757916q5.670776-26.607749 12.755089-52.068038l58.603566 34.057918q-7.084313 25.543439-12.755089 52.068038" fill="#d4237a" p-id="5319"></path><path d="M251.246848 392.781056l-58.603566-34.057918q5.737296-20.604375 12.389233-40.576817l58.603566 34.057918q-6.651937 19.955811-12.389233 40.576817" fill="#d4237a" p-id="5320"></path><path d="M263.636081 352.204239l-58.603566-34.057918q5.720666-17.311666 12.239564-34.124437l58.603566 34.041288q-6.485639 16.846031-12.239564 34.141067" fill="#d4237a" p-id="5321"></path><path d="M275.875645 318.063172l-58.603566-34.041288Q221.37965 273.328895 225.720039 262.752315q1.796023-4.307129 3.641936-8.564369l58.603566 34.041288q-1.845913 4.27387-3.641936 8.580999-4.423538 10.493431-8.514479 21.20305" fill="#d4237a" p-id="5322"></path><path d="M288.03206 288.279124l-58.603566-34.041289q5.720666-13.137576 11.740669-25.659847l58.603566 34.057918q-6.036633 12.489012-11.740669 25.643218" fill="#d4237a" p-id="5323"></path><path d="M299.772729 262.635906l-58.603566-34.057918q5.570997-11.541111 11.424702-22.566697l58.603566 34.057918q-5.870335 11.008956-11.424702 22.566697" fill="#d4237a" p-id="5324"></path><path d="M311.197431 240.069209l-58.603566-34.057918q5.587627-10.526691 11.424702-20.537856L322.622133 219.514724q-5.837075 9.977906-11.424702 20.537855" fill="#d4237a" p-id="5325"></path><path d="M322.622133 219.514724L263.968678 185.473435q5.737296-9.828237 11.64089-19.174209l58.603566 34.057919q-5.970114 9.362602-11.64089 19.174208" fill="#d4237a" p-id="5326"></path><path d="M334.329543 200.357145L275.725977 166.299226q6.069893-9.47901 12.355973-18.459125l58.603566 34.057918q-6.31934 8.980115-12.355973 18.459126" fill="#d4237a" p-id="5327"></path><path d="M346.685516 181.898019L288.08195 147.840101q6.651937-9.5289 13.653101-18.509015L360.421766 163.372374q-6.967904 9.013375-13.653101 18.525645" fill="#d4237a" p-id="5328"></path><path d="M360.421766 163.372374L301.735051 129.331086q7.816026-9.977906 15.948019-19.423657l58.603566 34.057919q-8.148623 9.379231-15.948019 19.407026" fill="#d4237a" p-id="5329"></path><path d="M376.286636 143.965348L317.68307 109.907429q10.57658-12.173045 21.751835-23.281779l58.603566 34.057918q-11.175254 11.058845-21.751835 23.28178" fill="#d4237a" p-id="5330"></path><path d="M398.038471 120.750087l-58.603566-34.057918a370.429749 370.429749 0 0 1 75.150259-57.589146 268.389033 268.389033 0 0 1 31.230845-15.548903l58.603566 34.057918A265.778148 265.778148 0 0 0 473.18873 63.194201a370.429749 370.429749 0 0 0-75.150259 57.589146" fill="#d4237a" p-id="5331"></path><path d="M504.419575 47.612038L445.816009 13.55412a198.394025 198.394025 0 0 1 23.880454-8.198512L528.383179 39.413526a198.394025 198.394025 0 0 0-23.880455 8.198512" fill="#d4237a" p-id="5332"></path><path d="M528.383179 39.413526L469.696463 5.355608A157.501241 157.501241 0 0 1 487.357357 1.663783l58.603566 34.057918A157.501241 157.501241 0 0 0 528.383179 39.413526" fill="#d4237a" p-id="5333"></path><path d="M545.960923 35.655181L487.357357 1.663783a134.252721 134.252721 0 0 1 14.80056-1.463427l58.603566 34.041289a138.493331 138.493331 0 0 0-14.80056 1.480056" fill="#d4237a" p-id="5334"></path><path d="M560.761483 34.175125L502.157917 0.133837a121.048626 121.048626 0 0 1 13.470172 0.116409l58.603566 34.057918a125.172827 125.172827 0 0 0-13.470172-0.133039" fill="#d4237a" p-id="5335"></path><path d="M574.231655 34.308164L515.628089 0.250246a114.380059 114.380059 0 0 1 12.68857 1.496686l58.603567 34.057918a114.380059 114.380059 0 0 0-12.688571-1.496686" fill="#d4237a" p-id="5336"></path><path d="M586.920226 35.80485L528.383179 1.746932a112.983152 112.983152 0 0 1 12.372603 2.860333l58.603566 34.057918a112.983152 112.983152 0 0 0-12.372603-2.860333" fill="#d4237a" p-id="5337"></path><path d="M599.292829 38.665183L540.689262 4.607265a115.394479 115.394479 0 0 1 12.389233 4.373648l58.603566 34.057918a115.394479 115.394479 0 0 0-12.389232-4.373648" fill="#d4237a" p-id="5338"></path><path d="M611.682061 43.038831L553.078495 8.980913a121.131775 121.131775 0 0 1 12.788349 6.269451l58.603567 34.057918a121.131775 121.131775 0 0 0-12.78835-6.269451" fill="#d4237a" p-id="5339"></path><path d="M624.470411 49.308282L565.866844 15.250364l1.413537 0.814862 58.603566 34.057919-1.413536-0.814863" fill="#d4237a" p-id="5340"></path></svg>