<?xml version="1.0" standalone="no"?><!DOCTYPE svg PUBLIC "-//W3C//DTD SVG 1.1//EN" "http://www.w3.org/Graphics/SVG/1.1/DTD/svg11.dtd"><svg t="1586887022802" class="icon" viewBox="0 0 1024 1024" version="1.1" xmlns="http://www.w3.org/2000/svg" p-id="13029" xmlns:xlink="http://www.w3.org/1999/xlink" width="500" height="500"><defs><style type="text/css"></style></defs><path d="M723.216 167.12c-62.464 0-118.512-14.928-156.768-35.552C528.16 110.864 472.144 96 409.664 96c-62.4 0-118.416 25.504-156.768 46.208v391.104c38.256-20.704 94.288-46.192 156.768-46.192 62.48 0 118.512 14.928 156.784 35.552 38.256 20.704 94.304 35.568 156.768 35.568 62.48 0 118.432-27.36 156.784-48V119.072c-38.352 20.704-94.384 48.064-156.784 48.064zM194.88 96C175.616 96 160 111.52 160 130.672v762.656c0 19.168 15.616 34.672 34.88 34.672 19.248 0 34.88-15.52 34.88-34.672V130.672A34.816 34.816 0 0 0 194.88 96z" p-id="13030" fill="#dbdbdb"></path></svg>