<?xml version="1.0" standalone="no"?><!DOCTYPE svg PUBLIC "-//W3C//DTD SVG 1.1//EN" "http://www.w3.org/Graphics/SVG/1.1/DTD/svg11.dtd"><svg t="1585386806039" class="icon" viewBox="0 0 1040 1024" version="1.1" xmlns="http://www.w3.org/2000/svg" p-id="12431" xmlns:xlink="http://www.w3.org/1999/xlink" width="304.6875" height="300"><defs><style type="text/css"></style></defs><path d="M1023.957 137.629v748.839c0.029 29.6-11.481 57.446-32.439 78.433-20.958 20.924-48.802 32.502-78.403 32.502H648.629c13.681-14.256 24.813-30.97 32.532-49.503h231.89c16.397 0 31.836-6.41 43.41-18.023 11.612-11.607 17.993-26.982 17.993-43.375V137.6c0-16.461-6.346-31.869-17.925-43.477-11.613-11.614-27.017-18.023-43.478-18.023h-231.89c-7.72-18.529-18.85-35.247-32.532-49.503H913.05c29.694 0 57.544 11.545 78.467 32.537 20.986 20.952 32.468 48.83 32.439 78.496zM877.997 455.86v403.752c0 9.568 7.783 17.316 17.318 17.316 9.568 0 17.322-7.748 17.322-17.316V455.861c0-9.569-7.72-17.317-17.322-17.317-9.534-0.001-17.317 7.747-17.317 17.317z m-90.94 0v403.752c0 9.568 7.783 17.316 17.322 17.316a17.294 17.294 0 0 0 17.323-17.316V455.861c0-9.569-7.72-17.317-17.323-17.317-9.54-0.001-17.321 7.747-17.321 17.317z m-90.97 0v403.752c0 9.568 7.788 17.316 17.323 17.316a17.293 17.293 0 0 0 17.322-17.316V455.861c0-9.569-7.72-17.317-17.322-17.317-9.569-0.001-17.322 7.747-17.322 17.317z m-2.648-88.449V157.948h179.868c10.527 0 20.416 4.113 27.879 11.579 7.402 7.399 11.418 17.288 11.388 27.782l0.03 130.87c0 21.658-17.575 39.268-39.235 39.268H693.44v-0.035zM340.73 495.765c12.63-10.302 23.602-21.595 32.852-33.777-10.813-1.023-21.784-1.757-32.852-2.108v35.885z m71.449-28.39c11.257 2.074 21.944 4.595 31.961 7.53-17.671 12.728-38.342 22.676-61.052 29.12 11.195-11.481 20.987-23.697 29.09-36.65z m-138.975-5.386c10.81-1.023 21.75-1.757 32.886-2.108v35.949c-12.663-10.334-23.638-21.66-32.886-33.841z m-95.277 260.596c0 11.768-8.581 18.787-22.933 18.787-3.539 0-5.962-0.16-7.972-0.48v-34.64c1.625-0.287 4.658-0.605 10.079-0.605 13.233 0 20.826 6.186 20.826 16.938z m56.681-255.21c8.167 12.953 17.926 25.168 29.09 36.62-22.68-6.443-43.317-16.398-60.988-29.09 9.987-2.934 20.704-5.455 31.898-7.53z m34.479 260.086l7.817 26.57H253.14c1.719-6.249 7.21-25.898 7.335-26.312 1.116-4.117 2.17-8.804 3.19-13.4 0.32-1.371 0.607-2.738 0.923-4.082 1.373 5.617 2.936 11.804 4.498 17.224z m114.098-505.657c21.85 6.186 41.847 15.628 59.101 27.688-9.821 2.804-20.286 5.164-31.29 7.145-7.876-12.313-17.224-23.955-27.81-34.833z m-77.094 8.07v33.909a512.528 512.528 0 0 1-31.547-1.948c8.93-11.515 19.551-22.17 31.547-31.962z m66.12 31.928c-10.333 0.957-20.827 1.66-31.482 1.946v-33.84c11.993 9.793 22.585 20.446 31.481 31.894zM113.782 26.596c-29.631 0-57.48 11.545-78.467 32.502C14.33 80.085 2.814 107.964 2.878 137.531v748.84c-0.064 29.634 11.451 57.48 32.41 78.467 20.923 20.987 48.83 32.536 78.46 32.536l399.636-0.034h19.935c38.308-0.092 72.12-19.74 91.992-49.469h-0.035c2.682-4.084 5.106-8.391 7.277-12.825 0.35-0.671 0.666-1.373 0.988-2.04a109.708 109.708 0 0 0 8.77-28.389c0.162-0.989 0.322-2.04 0.478-3.062 0.671-4.978 1.182-10.016 1.182-15.214V137.532c0-5.164-0.477-10.207-1.182-15.18-0.127-1.022-0.316-2.045-0.443-3.033-1.66-9.982-4.628-19.517-8.774-28.419-0.316-0.671-0.668-1.31-0.955-1.976-2.2-4.434-4.595-8.775-7.305-12.825h0.033c-19.842-29.729-53.683-49.376-92.089-49.468h-19.935l-399.538-0.035z m41.468 739.526c-3.417 0-6.064-0.16-8.23-0.448v44.723h-31.067V683.858l1.275-0.219c10.304-1.757 23.313-2.617 38.596-2.617 17.638 0 30.492 3.383 39.263 10.4 8.868 6.858 13.939 17.892 13.939 30.234 0 12.858-4.244 23.829-11.992 30.848-9.695 8.93-24.117 13.618-41.784 13.618z m136.292 44.275l-9.666-32.186h-33.715l-8.897 32.186H206.92l39.043-128.388h39.393l39.997 128.388h-33.809z m85.485 1.879c-15.059 0-29.348-4.148-36.235-8.006l-0.989-0.54 6.444-26.254 1.688 0.896c7.049 3.698 18.886 7.685 30.75 7.685 11.706 0 18.438-4.401 18.438-12.12 0-6.766-5.267-10.976-20.033-16.11-23.698-8.385-35.627-21.4-35.627-38.625 0-22.997 20.155-39.072 48.992-39.072 12.602 0 23.605 2.166 32.629 6.473l1.086 0.545-7.111 25.673-1.631-0.827c-4.239-2.17-13.268-5.806-25.357-5.806-11.608 0-16.81 5.324-16.81 10.62 0 6.766 5.615 10.016 22.363 16.27 23.06 8.513 33.33 20.51 33.33 38.814-0.034 18.631-13.619 40.384-51.927 40.384z m101.911 0c-14.996 0-29.314-4.148-36.269-8.006l-0.988-0.54 6.473-26.254 1.693 0.896c7.014 3.698 18.817 7.685 30.746 7.685 11.705 0 18.437-4.401 18.437-12.12 0-6.766-5.262-10.976-20.029-16.11-23.639-8.385-35.598-21.4-35.598-38.625 0-22.997 20.095-39.072 48.93-39.072 12.6 0 23.604 2.166 32.662 6.473l1.114 0.545-7.144 25.673-1.626-0.827c-4.307-2.17-13.268-5.806-25.392-5.806-11.544 0-16.742 5.324-16.742 10.62 0 6.766 5.548 10.016 22.296 16.27 23.026 8.513 33.329 20.476 33.329 38.814 0 18.631-13.589 40.384-51.892 40.384z m12.82-332.873c-1.021 1.31-2.234 2.424-3.539 3.383-39.934 39.232-98.947 64.205-164.842 64.205-66.348 0-125.77-25.293-165.704-65.038-0.48-0.414-0.924-0.797-1.372-1.275-21.337-21.625-36.776-47.493-44.627-75.785h36.236c5.68 15.628 14.29 30.268 25.488 43.346 13.652-5.17 28.736-9.506 44.972-12.918-3.985-9.89-7.018-20.061-9.378-30.428h35.63c2.327 8.356 5.073 16.586 8.737 24.559 17.07-2.172 34.77-3.539 52.663-4.05v-20.48h34.643v20.48c17.892 0.511 35.564 1.878 52.662 4.05 3.636-7.943 6.411-16.203 8.737-24.56h35.661c-2.36 10.367-5.422 20.54-9.374 30.429 16.266 3.412 31.384 7.748 45.036 12.918 11.199-13.078 19.774-27.685 25.42-43.346h36.27c-7.659 27.718-22.62 53.139-43.319 74.51z m49.28-116.517c0 5.801-0.38 11.544-0.99 17.224H106.767a154.33 154.33 0 0 1-0.989-17.224c0-5.778 0.35-11.487 0.958-17.132h433.349c0.603 5.645 0.954 11.354 0.954 17.132z m-42.199-41.882c-5.87-16.27-14.928-31.42-26.73-44.878-13.462 4.974-28.327 9.155-44.368 12.47 4.337 10.494 7.656 21.342 10.177 32.375h-35.822c-2.52-9.057-5.646-17.987-9.695-26.569-16.747 2.073-34.098 3.348-51.644 3.894v22.675h-34.669v-22.647c-17.545-0.539-34.93-1.815-51.673-3.888-4.054 8.576-7.18 17.512-9.73 26.569h-35.785c2.486-11.038 5.806-21.915 10.142-32.375-15.983-3.349-30.876-7.53-44.304-12.504-11.837 13.457-20.895 28.608-26.793 44.878H111.71c7.972-28.803 23.858-55.085 45.77-76.967a15.577 15.577 0 0 1 1.693-1.563c39.935-38.916 98.69-63.666 164.235-63.666 65.485 0 124.207 24.72 164.141 63.603a13.75 13.75 0 0 1 1.884 1.753c21.848 21.849 37.7 48.1 45.672 76.87h-36.264v-0.03z m-294.281-71.51c17.224-12.027 37.194-21.47 59.013-27.655-10.591 10.844-19.872 22.486-27.751 34.765-10.942-1.977-21.435-4.338-31.262-7.11z m0 0" fill="#7dc5eb" p-id="12432"></path></svg>